<?xml version="1.0" encoding="UTF-8"?>
<svg xmlns="http://www.w3.org/2000/svg" width="1254" height="1254" viewBox="0 0 1254 1254" role="img" aria-label="Minimalist moose silhouette logo">
  <title>Minimalist Moose Silhouette Logo</title>
  <path d="M 485.00 77.00
    Q 460.00 84.00 434.50 94.00
    Q 409.00 104.00 390.00 113.50
    Q 371.00 123.00 350.00 136.00
    Q 329.00 149.00 306.00 166.50
    Q 283.00 184.00 258.50 207.50
    Q 234.00 231.00 221.50 245.50
    Q 209.00 260.00 192.50 283.00
    Q 176.00 306.00 164.50 325.50
    Q 153.00 345.00 141.00 370.50
    Q 129.00 396.00 121.00 418.50
    Q 113.00 441.00 105.00 473.50
    Q 97.00 506.00 93.50 532.00
    Q 90.00 558.00 89.00 585.50
    Q 88.00 613.00 90.00 641.00
    Q 92.00 669.00 97.00 696.00
    Q 102.00 723.00 108.50 746.00
    Q 115.00 769.00 127.00 799.00
    Q 139.00 829.00 154.50 857.50
    Q 170.00 886.00 186.00 909.00
    Q 202.00 932.00 221.50 954.50
    Q 241.00 977.00 265.00 999.00
    Q 289.00 1021.00 298.50 1028.50
    Q 308.00 1036.00 325.00 1047.50
    Q 342.00 1059.00 355.50 1067.00
    Q 369.00 1075.00 386.00 1083.50
    Q 403.00 1092.00 427.00 1101.00
    Q 451.00 1110.00 473.50 1047.50
    Q 496.00 985.00 498.50 974.50
    Q 501.00 964.00 501.00 955.00
    Q 501.00 946.00 492.00 940.50
    Q 483.00 935.00 475.50 929.00
    Q 468.00 923.00 459.50 912.50
    Q 451.00 902.00 447.50 894.50
    Q 444.00 887.00 441.50 877.50
    Q 439.00 868.00 439.00 847.00
    Q 439.00 826.00 440.50 816.50
    Q 442.00 807.00 446.00 793.50
    Q 450.00 780.00 454.00 772.00
    Q 458.00 764.00 463.50 755.50
    Q 469.00 747.00 481.50 732.00
    Q 494.00 717.00 500.00 708.00
    Q 506.00 699.00 508.50 691.00
    Q 511.00 683.00 511.00 677.00
    Q 511.00 671.00 508.50 664.00
    Q 506.00 657.00 503.50 646.00
    Q 501.00 635.00 500.00 621.50
    Q 499.00 608.00 499.50 598.50
    Q 500.00 589.00 491.00 594.00
    Q 482.00 599.00 475.50 601.00
    Q 469.00 603.00 461.50 603.50
    Q 454.00 604.00 446.00 602.00
    Q 438.00 600.00 429.50 594.50
    Q 421.00 589.00 415.00 582.50
    Q 409.00 576.00 404.50 567.50
    Q 400.00 559.00 399.50 554.00
    Q 399.00 549.00 400.00 547.00
    Q 401.00 545.00 404.50 542.00
    Q 408.00 539.00 415.00 536.00
    Q 422.00 533.00 429.00 531.50
    Q 436.00 530.00 449.00 530.00
    Q 462.00 530.00 467.00 531.00
    Q 472.00 532.00 480.50 535.00
    Q 489.00 538.00 497.00 543.00
    Q 505.00 548.00 509.50 536.00
    Q 514.00 524.00 516.50 519.50
    Q 519.00 515.00 513.50 511.00
    Q 508.00 507.00 496.50 502.00
    Q 485.00 497.00 475.00 494.50
    Q 465.00 492.00 443.00 489.50
    Q 421.00 487.00 406.00 484.00
    Q 391.00 481.00 382.50 478.00
    Q 374.00 475.00 363.50 468.50
    Q 353.00 462.00 345.50 454.50
    Q 338.00 447.00 333.50 440.00
    Q 329.00 433.00 325.00 424.00
    Q 321.00 415.00 318.50 406.00
    Q 316.00 397.00 314.50 387.50
    Q 313.00 378.00 313.00 365.00
    Q 313.00 352.00 314.50 344.50
    Q 316.00 337.00 319.00 329.50
    Q 322.00 322.00 328.50 314.00
    Q 335.00 306.00 340.00 303.00
    Q 345.00 300.00 350.50 299.50
    Q 356.00 299.00 361.00 301.50
    Q 366.00 304.00 369.50 310.00
    Q 373.00 316.00 373.00 324.00
    Q 373.00 332.00 371.50 340.00
    Q 370.00 348.00 370.50 358.50
    Q 371.00 369.00 373.50 374.50
    Q 376.00 380.00 379.50 383.00
    Q 383.00 386.00 386.00 387.00
    Q 389.00 388.00 394.00 387.50
    Q 399.00 387.00 402.50 385.00
    Q 406.00 383.00 407.50 381.00
    Q 409.00 379.00 411.00 373.00
    Q 413.00 367.00 413.00 358.50
    Q 413.00 350.00 416.00 343.00
    Q 419.00 336.00 423.50 332.50
    Q 428.00 329.00 432.00 328.50
    Q 436.00 328.00 439.00 329.00
    Q 442.00 330.00 445.00 333.00
    Q 448.00 336.00 450.00 341.00
    Q 452.00 346.00 450.50 365.00
    Q 449.00 384.00 451.00 392.00
    Q 453.00 400.00 455.50 403.50
    Q 458.00 407.00 464.00 410.00
    Q 470.00 413.00 474.00 412.50
    Q 478.00 412.00 483.00 408.00
    Q 488.00 404.00 489.50 400.00
    Q 491.00 396.00 491.50 387.00
    Q 492.00 378.00 493.50 374.50
    Q 495.00 371.00 499.50 367.00
    Q 504.00 363.00 509.00 362.50
    Q 514.00 362.00 516.50 363.00
    Q 519.00 364.00 522.00 367.00
    Q 525.00 370.00 526.50 376.00
    Q 528.00 382.00 525.00 395.50
    Q 522.00 409.00 522.50 415.00
    Q 523.00 421.00 524.50 425.50
    Q 526.00 430.00 530.50 436.50
    Q 535.00 443.00 541.50 447.50
    Q 548.00 452.00 555.50 455.00
    Q 563.00 458.00 569.00 453.50
    Q 575.00 449.00 586.50 444.00
    Q 598.00 439.00 608.00 437.00
    Q 618.00 435.00 629.00 435.00
    Q 640.00 435.00 654.00 438.50
    Q 668.00 442.00 675.00 445.50
    Q 682.00 449.00 688.50 453.50
    Q 695.00 458.00 706.00 452.50
    Q 717.00 447.00 723.00 439.50
    Q 729.00 432.00 731.00 425.50
    Q 733.00 419.00 733.00 412.00
    Q 733.00 405.00 731.00 398.50
    Q 729.00 392.00 728.50 386.00
    Q 728.00 380.00 729.50 376.00
    Q 731.00 372.00 734.50 368.50
    Q 738.00 365.00 740.00 364.00
    Q 742.00 363.00 746.50 363.00
    Q 751.00 363.00 753.00 364.00
    Q 755.00 365.00 758.00 368.00
    Q 761.00 371.00 762.00 373.50
    Q 763.00 376.00 763.50 387.00
    Q 764.00 398.00 765.50 401.50
    Q 767.00 405.00 769.50 407.50
    Q 772.00 410.00 775.50 411.50
    Q 779.00 413.00 784.00 412.50
    Q 789.00 412.00 794.50 407.50
    Q 800.00 403.00 802.50 396.00
    Q 805.00 389.00 805.00 366.50
    Q 805.00 344.00 806.50 341.00
    Q 808.00 338.00 811.50 334.50
    Q 815.00 331.00 817.50 330.00
    Q 820.00 329.00 823.00 329.00
    Q 826.00 329.00 828.50 330.00
    Q 831.00 331.00 835.00 335.50
    Q 839.00 340.00 840.50 345.00
    Q 842.00 350.00 842.00 360.00
    Q 842.00 370.00 843.50 374.50
    Q 845.00 379.00 847.00 381.50
    Q 849.00 384.00 851.50 385.50
    Q 854.00 387.00 861.50 387.00
    Q 869.00 387.00 873.00 384.00
    Q 877.00 381.00 880.00 374.50
    Q 883.00 368.00 883.00 355.50
    Q 883.00 343.00 882.00 335.50
    Q 881.00 328.00 882.50 320.50
    Q 884.00 313.00 885.00 311.00
    Q 886.00 309.00 890.50 305.00
    Q 895.00 301.00 898.00 300.00
    Q 901.00 299.00 905.50 299.50
    Q 910.00 300.00 913.50 302.00
    Q 917.00 304.00 924.00 312.00
    Q 931.00 320.00 934.50 329.00
    Q 938.00 338.00 939.50 348.00
    Q 941.00 358.00 940.50 371.50
    Q 940.00 385.00 938.50 393.00
    Q 937.00 401.00 932.00 415.50
    Q 927.00 430.00 922.00 438.00
    Q 917.00 446.00 908.00 455.00
    Q 899.00 464.00 887.50 470.50
    Q 876.00 477.00 861.50 481.00
    Q 847.00 485.00 819.50 488.50
    Q 792.00 492.00 781.00 494.50
    Q 770.00 497.00 758.50 502.00
    Q 747.00 507.00 741.50 511.00
    Q 736.00 515.00 740.50 524.00
    Q 745.00 533.00 747.50 540.50
    Q 750.00 548.00 757.50 543.00
    Q 765.00 538.00 774.00 535.00
    Q 783.00 532.00 789.00 531.00
    Q 795.00 530.00 806.00 530.00
    Q 817.00 530.00 822.50 531.00
    Q 828.00 532.00 837.50 536.00
    Q 847.00 540.00 850.50 544.50
    Q 854.00 549.00 853.00 555.50
    Q 852.00 562.00 846.50 571.00
    Q 841.00 580.00 835.00 586.00
    Q 829.00 592.00 822.00 596.00
    Q 815.00 600.00 807.50 602.00
    Q 800.00 604.00 792.00 603.50
    Q 784.00 603.00 778.00 601.00
    Q 772.00 599.00 764.00 594.50
    Q 756.00 590.00 756.00 602.50
    Q 756.00 615.00 755.00 624.50
    Q 754.00 634.00 752.50 641.50
    Q 751.00 649.00 747.50 660.00
    Q 744.00 671.00 744.00 676.00
    Q 744.00 681.00 746.00 688.00
    Q 748.00 695.00 752.00 702.00
    Q 756.00 709.00 769.00 724.50
    Q 782.00 740.00 790.00 752.00
    Q 798.00 764.00 802.50 774.00
    Q 807.00 784.00 810.50 797.50
    Q 814.00 811.00 815.50 824.00
    Q 817.00 837.00 817.00 846.50
    Q 817.00 856.00 815.50 866.00
    Q 814.00 876.00 811.50 883.00
    Q 809.00 890.00 802.50 900.50
    Q 796.00 911.00 786.00 920.50
    Q 776.00 930.00 765.50 936.00
    Q 755.00 942.00 754.00 945.50
    Q 753.00 949.00 754.00 959.50
    Q 755.00 970.00 760.50 987.50
    Q 766.00 1005.00 785.00 1057.50
    Q 804.00 1110.00 806.50 1109.50
    Q 809.00 1109.00 835.50 1098.50
    Q 862.00 1088.00 884.50 1076.00
    Q 907.00 1064.00 929.50 1048.50
    Q 952.00 1033.00 971.00 1017.00
    Q 990.00 1001.00 1010.00 980.50
    Q 1030.00 960.00 1044.50 942.00
    Q 1059.00 924.00 1071.50 905.50
    Q 1084.00 887.00 1098.50 860.50
    Q 1113.00 834.00 1124.50 806.00
    Q 1136.00 778.00 1144.50 747.50
    Q 1153.00 717.00 1157.00 693.50
    Q 1161.00 670.00 1163.00 647.00
    Q 1165.00 624.00 1164.50 594.50
    Q 1164.00 565.00 1162.00 547.00
    Q 1160.00 529.00 1155.50 505.00
    Q 1151.00 481.00 1142.00 450.00
    Q 1133.00 419.00 1123.00 394.50
    Q 1113.00 370.00 1100.50 346.50
    Q 1088.00 323.00 1072.50 299.50
    Q 1057.00 276.00 1042.00 257.50
    Q 1027.00 239.00 1008.50 220.00
    Q 990.00 201.00 965.00 180.50
    Q 940.00 160.00 919.00 146.00
    Q 898.00 132.00 873.50 119.00
    Q 849.00 106.00 821.00 95.00
    Q 793.00 84.00 766.00 76.50
    Q 739.00 69.00 716.00 65.00
    Q 693.00 61.00 670.00 59.00
    Q 647.00 57.00 617.50 57.50
    Q 588.00 58.00 567.00 60.50
    Q 546.00 63.00 528.00 66.50
    Q 510.00 70.00 485.00 77.00
    Z" fill="#000000"/>
</svg>
